# xmcd CD database file
#
# Track frame offsets:
#	150
#	26662
#	47389
#	78899
#	103499
#	125505
#	143038
#	169620
#	204046
#	228302
#	244835
#	268195
#
# Disc length: 3854 seconds
#
# Revision: 0
# Processed by: cddbd v1.5.1PL0 Copyright (c) Steve Scherf et al.
# Submitted via: CDex 1.51
#
DISCID=9a0f0c0c
DTITLE=Various Artist - Tisko pocuvaj-relaxacna hudba pre deti
DYEAR=1900
DGENRE=New Age
TTITLE0=The Riddle Song-Daniel Kobialka
TTITLE1=The Future is Beautiful-Daniel Kobialka
TTITLE2=Spiritual Guitar-Wolfgang Zimmerman
TTITLE3=Lesna prechadzka-Pavol Krupka
TTITLE4=Celestial Light-Anthony Miles
TTITLE5=Angel of Hope-Erik Berglund
TTITLE6=The Green World-Goomer Edwin Evans
TTITLE7=Kracane spolu-Frantisek Biros
TTITLE8=Kukucka-Pavol Krupka
TTITLE9=Putovanie-Frantisek Biros
TTITLE10=Transcendances I-Michael Pepe
TTITLE11=Vianocna zvonkohra-Pavol Krupka
EXTD=
EXTT0=
EXTT1=
EXTT2=
EXTT3=
EXTT4=
EXTT5=
EXTT6=
EXTT7=
EXTT8=
EXTT9=
EXTT10=
EXTT11=
PLAYORDER=
